<svg viewBox="0 0 656 656" width="656" height="656" x="0" y="0" xmlns="http://www.w3.org/2000/svg"><defs><pattern id="pattern" x="0" y="0" width="8" height="8" patternUnits="userSpaceOnUse"><polygon points="0,4 0,8 8,0 4,0" fill="#ffffff"></polygon><polygon points="4,8 8,8 8,4" fill="#ffffff"></polygon></pattern><mask id="grating" x="0" y="0" width="1" height="1"><rect x="0" y="0" width="100%" height="100%" fill="url(#pattern)"></rect></mask></defs><g id="horizStripes"><rect fill="#7C7C7C" height="64" width="100%" x="0" y="0"></rect><rect fill="#4C1864" height="16" width="100%" x="0" y="64"></rect><rect fill="#000000" height="56" width="100%" x="0" y="80"></rect><rect fill="#7C7C7C" height="16" width="100%" x="0" y="136"></rect><rect fill="#000000" height="16" width="100%" x="0" y="152"></rect><rect fill="#7C7C7C" height="16" width="100%" x="0" y="168"></rect><rect fill="#000000" height="16" width="100%" x="0" y="184"></rect><rect fill="#646464" height="64" width="100%" x="0" y="200"></rect><rect fill="#7C7C7C" height="48" width="100%" x="0" y="264"></rect><rect fill="#000000" height="16" width="100%" x="0" y="312"></rect><rect fill="#7C7C7C" height="24" width="100%" x="0" y="328"></rect><rect fill="#7C7C7C" height="16" width="100%" x="0" y="352"></rect><rect fill="#7C7C7C" height="24" width="100%" x="0" y="368"></rect><rect fill="#000000" height="16" width="100%" x="0" y="392"></rect><rect fill="#7C7C7C" height="48" width="100%" x="0" y="408"></rect><rect fill="#646464" height="64" width="100%" x="0" y="456"></rect><rect fill="#000000" height="16" width="100%" x="0" y="520"></rect><rect fill="#7C7C7C" height="16" width="100%" x="0" y="536"></rect><rect fill="#000000" height="16" width="100%" x="0" y="552"></rect><rect fill="#7C7C7C" height="16" width="100%" x="0" y="568"></rect><rect fill="#000000" height="56" width="100%" x="0" y="584"></rect><rect fill="#4C1864" height="16" width="100%" x="0" y="640"></rect></g><g id="vertStripes" mask="url(#grating)"><rect fill="#7C7C7C" height="100%" width="64" x="0" y="0"></rect><rect fill="#4C1864" height="100%" width="16" x="64" y="0"></rect><rect fill="#000000" height="100%" width="56" x="80" y="0"></rect><rect fill="#7C7C7C" height="100%" width="16" x="136" y="0"></rect><rect fill="#000000" height="100%" width="16" x="152" y="0"></rect><rect fill="#7C7C7C" height="100%" width="16" x="168" y="0"></rect><rect fill="#000000" height="100%" width="16" x="184" y="0"></rect><rect fill="#646464" height="100%" width="64" x="200" y="0"></rect><rect fill="#7C7C7C" height="100%" width="48" x="264" y="0"></rect><rect fill="#000000" height="100%" width="16" x="312" y="0"></rect><rect fill="#7C7C7C" height="100%" width="24" x="328" y="0"></rect><rect fill="#7C7C7C" height="100%" width="16" x="352" y="0"></rect><rect fill="#7C7C7C" height="100%" width="24" x="368" y="0"></rect><rect fill="#000000" height="100%" width="16" x="392" y="0"></rect><rect fill="#7C7C7C" height="100%" width="48" x="408" y="0"></rect><rect fill="#646464" height="100%" width="64" x="456" y="0"></rect><rect fill="#000000" height="100%" width="16" x="520" y="0"></rect><rect fill="#7C7C7C" height="100%" width="16" x="536" y="0"></rect><rect fill="#000000" height="100%" width="16" x="552" y="0"></rect><rect fill="#7C7C7C" height="100%" width="16" x="568" y="0"></rect><rect fill="#000000" height="100%" width="56" x="584" y="0"></rect><rect fill="#4C1864" height="100%" width="16" x="640" y="0"></rect></g></svg>